PathFileType	4	(X/Y/Z)	C:/Users/beibeiliu/ov580/test_trc/User2\sequence.26_training_dense_left.trc
DataRate	CameraRate	NumFrames	NumMarkers	Units	OrigDataRate	OrigDataStartFrame	OrigNumFrames
120	120	15	19	mm	120	46	361
Frame#	Time	ThumbCMC			ThumbMCP			ThumbIP			ThumbTip			IndexMCP			IndexPIP			IndexTip			MiddleMCP			MiddlePIP			MiddleTip			RingMCP			RingPIP			RingTip			PinkyMCP			PinkyPIP			PinkyTip			BackHand1			BackHand2			BackHand3	
		X0	Y0	Z0	X1	Y1	Z1	X2	Y2	Z2	X3	Y3	Z3	X4	Y4	Z4	X5	Y5	Z5	X6	Y6	Z6	X7	Y7	Z7	X8	Y8	Z8	X9	Y9	Z9	X10	Y10	Z10	X11	Y11	Z11	X12	Y12	Z12	X13	Y13	Z13	X14	Y14	Z14	X15	Y15	Z15	X16	Y16	Z16	X17	Y17	Z17	X18	Y18	Z18	
45	0.375	-140.996	-38.3929	93.6601	-114.053	-48.8708	73.6436	-93.6607	-58.4224	52.5163	-78.3217	-66.9426	36.1009	-162.824	-24.7829	15.1333	-159.721	-20.3996	-12.1624	-161.904	-17.6169	-38.774	-180.326	-47.6687	2.83114	-174.883	-62.3226	-28.7593	-164.603	-75.6783	-52.9137	-185.284	-76.974	9.66413	-172.155	-97.3596	-5.07145	-146.976	-122.936	-12.153	-192.751	-101.255	26.749	-174.717	-120.169	21.0075	-154.485	-131.736	14.0528	-210.285	-55.298	67.7568	-210.858	-46.871	101.972	-181.893	-27.8507	84.3504	
46	0.383333	-141.735	-31.1858	90.1369	-112.891	-40.3846	75.1928	-92.4029	-49.8521	51.8141	-78.9664	-61.8993	31.2042	-165.763	-25.5146	14.748	-165.331	-23.6942	-11.2063	-167.821	-25.2408	-40.6333	-175.848	-51.7552	2.07163	-162.441	-69.6914	-27.3894	-147.216	-90.6234	-43.8834	-183.8	-84.7337	12.1558	-161.898	-100.275	-2.92581	-138.229	-122.345	-4.31672	-186.479	-104.054	27.1711	-167.872	-116.527	21.2694	-144.068	-129.734	18.4691	-206.447	-55.9263	64.9748	-211.4	-51.6098	100.837	-183.533	-27.2749	81.8003	
47	0.391667	-142.408	-25.9712	90.6491	-116.949	-36.4346	72.9749	-88.7369	-40.5092	48.7342	-73.0623	-50.1724	34.0192	-167.387	-27.0943	9.67541	-164.112	-26.0408	-13.2627	-164.9	-27.5303	-43.2475	-173.252	-57.1272	4.91998	-155.391	-76.9604	-21.8118	-128.929	-96.4955	-33.7375	-174.314	-88.208	10.9294	-153.454	-101.191	-0.360769	-125.294	-119.687	-1.24965	-181.376	-102.239	29.9625	-157.729	-118.928	20.4861	-130.962	-127.767	17.4338	-203.849	-61.4938	68.146	-209.834	-51.7346	96.4485	-186.589	-26.6102	79.6056	
48	0.4	-146.376	-21.3778	92.0337	-117.6	-29.0695	73.9001	-88.6726	-30.8232	49.7906	-74.9309	-43.3426	32.2877	-167.598	-28.881	10.2432	-164.758	-31.225	-17.2433	-160.458	-36.0202	-44.8358	-169.211	-61.7452	5.3404	-143.623	-76.037	-19.5684	-113.21	-94.7134	-25.3746	-169.489	-84.6594	14.5989	-146.939	-104.425	-0.667923	-113.216	-111.627	-2.05283	-174.358	-106.709	29.1847	-149.076	-117.552	16.6662	-126.93	-123.531	12.8162	-202.4	-65.7065	68.2213	-207.723	-57.5809	95.6067	-190.315	-31.4486	79.7487	
49	0.408333	-145.519	-14.947	86.9507	-119.123	-20.7693	72.731	-91.6709	-22.2892	50.354	-72.7415	-30.2031	32.1685	-165.289	-31.7359	6.33935	-156.789	-34.2227	-21.4739	-146.184	-41.285	-44.9548	-165.038	-62.331	3.6437	-140.805	-77.3014	-17.9418	-107.895	-95.6563	-24.6151	-166.776	-87.7218	13.0902	-142.547	-99.5551	-4.10867	-113.926	-109.848	-9.39763	-170.722	-100.812	34.6155	-147.766	-112.504	15.5953	-122.871	-123.674	4.47756	-197.616	-67.5759	65.6227	-202.936	-57.8497	97.3789	-188.968	-31.1615	77.0239	
50	0.416667	-150.412	-9.98679	89.3324	-120.142	-9.20575	70.0671	-93.5871	-10.4176	50.0213	-72.2465	-14.3607	32.7619	-160.035	-32.0852	8.45239	-148.134	-41.5581	-21.761	-129.813	-46.2086	-40.8346	-163.357	-64.0179	4.17084	-140.966	-76.3633	-21.584	-112.312	-89.4538	-32.5093	-165.423	-85.9651	14.8056	-143.833	-100.551	-7.72701	-114.107	-106.119	-20.3929	-162.509	-104.373	32.9546	-146.257	-116.121	15.1282	-126.326	-119.213	-1.49385	-191.799	-70.094	68.5591	-201.693	-63.3422	96.2317	-189.544	-33.4247	74.8186	
51	0.425	-152.926	-8.05075	87.7404	-121.934	-1.02587	71.0131	-95.9686	-3.93211	49.3867	-73.6663	-7.78602	29.7543	-155.85	-38.0169	4.89126	-137.677	-43.4853	-19.2128	-113.596	-52.6673	-36.5029	-163.224	-64.8627	4.08844	-146.309	-72.073	-23.1162	-115.681	-87.8135	-44.4643	-163.477	-85.7491	14.0767	-147.072	-96.9987	-10.5966	-124.501	-106.692	-26.3231	-159.104	-107.336	38.1957	-141.867	-116.693	12.9619	-125.047	-119.728	-4.58552	-185.992	-72.4701	67.3617	-197.09	-68.3713	98.0084	-189.365	-34.4536	72.5801	
52	0.433333	-157.827	-11.4598	83.0886	-129.018	-0.927867	70.3031	-97.8323	2.52532	42.6021	-77.8167	-2.52912	30.1457	-154.349	-42.6203	5.66071	-133.372	-46.2685	-16.3834	-105.349	-52.8032	-29.7203	-163.788	-69.2078	0.561489	-150.186	-72.43	-25.2965	-126.437	-79.7107	-50.538	-162.313	-92.0922	18.6917	-149.783	-98.5594	-9.46187	-129.764	-107.38	-31.9292	-153.11	-108.999	39.3959	-137.933	-119.12	14.7935	-124.224	-128.821	-6.09076	-181.327	-76.059	67.1264	-196.656	-72.1114	100.17	-189.73	-38.8253	69.9447	
53	0.441667	-163.192	-7.83273	82.9022	-133.042	3.33388	62.7056	-104.265	8.43028	41.3144	-84.728	3.53637	29.8709	-154.846	-42.9099	5.08909	-130.933	-43.9945	-16.7336	-106.029	-45.5745	-27.3577	-164.369	-66.0603	0.177117	-151.264	-73.748	-29.1098	-133.212	-80.9265	-53.844	-160.177	-88.758	15.7216	-148.779	-100.313	-6.94189	-133.861	-104.341	-31.2188	-148.427	-105.901	40.2563	-132.711	-116.768	17.325	-119.696	-125.949	-1.38987	-181.829	-80.6215	71.4352	-194.193	-73.2887	97.6828	-191.648	-40.9675	68.3503	
54	0.45	-167.799	-8.15656	76.0071	-140.947	4.42911	62.4767	-112.573	12.7467	39.6951	-91.6996	9.83277	27.5817	-155.69	-44.3508	3.34365	-130.918	-43.3972	-20.2067	-107.753	-42.5507	-29.5982	-163.525	-72.3494	3.25899	-150.798	-74.2622	-29.2714	-135.852	-79.3871	-56.3392	-154.121	-93.6229	20.1693	-141.07	-103.838	-6.85269	-126.318	-104.356	-30.0592	-138.224	-105.877	40.5032	-121.092	-114.16	21.5296	-103.998	-118.923	3.02454	-177.372	-82.2756	69.6456	-189.352	-76.1028	100.205	-191.605	-44.126	69.4126	
55	0.458333	-172.99	-10.6677	76.5089	-145.901	6.81175	58.0924	-119.832	12.6617	38.8261	-97.1038	17.5479	22.8003	-159.521	-47.2324	4.90053	-137.207	-44.9114	-19.2532	-112.92	-42.2509	-34.2308	-162.92	-71.6022	3.96163	-151.765	-75.1309	-28.1019	-136.827	-82.5719	-51.5238	-150.289	-90.3401	22.1062	-132.531	-102.256	-6.03051	-116.65	-103.058	-26.8522	-129.444	-102.719	44.7363	-111.069	-105.218	26.8468	-86.8253	-110.9	8.71517	-173.97	-79.8278	70.7184	-188.476	-75.0398	97.3475	-195.715	-48.9894	71.5295	
56	0.466667	-178.372	-10.7614	72.3477	-152.988	8.61227	55.6317	-126.556	18.3206	34.4494	-105.142	21.5576	22.3427	-162.935	-47.8925	1.24991	-145.26	-44.2558	-22.2985	-124.707	-40.7179	-39.661	-160.658	-74.7337	2.77045	-147.039	-79.606	-27.4222	-130.854	-85.1694	-53.7399	-142.471	-90.0683	23.5254	-121.584	-98.4785	-2.80642	-103.444	-95.6943	-25.9299	-123.243	-94.4142	47.7854	-100.902	-95.3612	31.7434	-76.1984	-96.7856	15.9965	-168.137	-85.6448	68.8769	-186.11	-79.8704	101.343	-193.585	-51.279	67.4419	
57	0.475	-183.136	-13.9343	75.5043	-159.563	5.24034	56.7392	-131.221	14.0331	33.5996	-111.155	18.8513	21.2593	-164.719	-50.4564	-0.563903	-149.623	-50.3618	-24.232	-132.071	-45.4527	-46.0557	-157.541	-78.5824	4.7168	-145.36	-82.2996	-22.0408	-125.581	-85.2592	-53.2766	-133.666	-88.8281	19.7369	-115.079	-91.4077	-1.32358	-95.4346	-87.0465	-19.1789	-114.056	-90.0998	49.5025	-88.1233	-87.267	35.0496	-69.343	-85.3074	22.0337	-163.878	-84.2534	72.7747	-184.086	-78.5265	98.7836	-194.098	-56.9562	70.3608	
58	0.483333	-188.601	-13.072	73.3749	-164.127	4.58334	54.555	-141.172	17.6736	33.2037	-118.068	21.7748	16.8267	-168.446	-54.5765	2.89294	-156.908	-54.6721	-23.5856	-140.398	-52.7608	-51.6714	-153.559	-78.7961	7.90638	-137.693	-81.8853	-25.8782	-120.283	-83.1136	-52.4648	-128.849	-86.0831	24.2316	-105.642	-85.0898	2.04565	-87.2385	-76.9885	-15.3048	-107.94	-84.8217	50.8256	-86.6646	-76.5187	37.2276	-63.3839	-69.7821	23.7154	-162.77	-82.5509	68.8665	-179.267	-80.5164	101.635	-192.328	-61.1054	69.2133	
59	0.491667	-192.871	-15.4441	72.8321	-170.628	3.9073	52.0336	-148.476	17.3178	29.5498	-125.513	21.0143	14.0644	-170.792	-57.5319	-1.1641	-162.587	-57.127	-28.7457	-148.93	-59.4189	-48.841	-147.822	-80.2426	5.34849	-134.31	-80.5655	-21.5255	-111.211	-81.344	-46.3478	-121.233	-82.5218	22.675	-99.9481	-75.894	2.31653	-75.9591	-64.8148	-14.1879	-106.312	-78.4158	52.9339	-79.4572	-66.7149	37.9503	-64.0516	-56.8293	27.1224	-158.401	-85.3402	75.6013	-175.669	-83.4268	101.936	-194.004	-61.7699	67.9321	
